# xmcd CD database file
#
# Track frame offsets:
#	150
#	900
#	1650
#	65072
#	332550
#
# Disc length: 4440 seconds
#
# Revision: 0
# Processed by: cddbd v1.5PL3 Copyright (c) Steve Scherf et al.
# Submitted via: CDex 1.50Beta7
#
DISCID=2d115605
DTITLE=加藤夏希 - ハングリーハート 〜奇跡の翼〜
DYEAR=2003
DGENRE=JPop
TTITLE0=ハングリーハート 〜奇跡の翼〜
TTITLE1=VIEW OF DREA 加藤夏希 as 辻脇美紀
TTITLE2=ハングリーハート 〜奇跡の翼〜 (Instruental)
TTITLE3=DATA TRACK
TTITLE4=DATA TRACK
EXTD=YEAR: 2003
EXTT0=
EXTT1=
EXTT2=
EXTT3=
EXTT4=
PLAYORDER=
